<?xml version="1.0" encoding="UTF-8" standalone="no"?>
<!-- Created with Inkscape (http://www.inkscape.org/) -->

<svg
   xmlns:dc="http://purl.org/dc/elements/1.1/"
   xmlns:cc="http://creativecommons.org/ns#"
   xmlns:rdf="http://www.w3.org/1999/02/22-rdf-syntax-ns#"
   xmlns:svg="http://www.w3.org/2000/svg"
   xmlns="http://www.w3.org/2000/svg"
   xmlns:sodipodi="http://sodipodi.sourceforge.net/DTD/sodipodi-0.dtd"
   xmlns:inkscape="http://www.inkscape.org/namespaces/inkscape"
   width="64"
   height="64"
   id="svg2"
   version="1.1"
   inkscape:version="0.48.4 r9939"
   sodipodi:docname="pow.svg"
   inkscape:export-filename="/home/ezacharyk/game_projects/onegame2014/FebOneGAM/assets/images/pow.png"
   inkscape:export-xdpi="90"
   inkscape:export-ydpi="90">
  <defs
     id="defs4" />
  <sodipodi:namedview
     id="base"
     pagecolor="#ffffff"
     bordercolor="#666666"
     borderopacity="1.0"
     inkscape:pageopacity="0.0"
     inkscape:pageshadow="2"
     inkscape:zoom="11.2"
     inkscape:cx="17.339475"
     inkscape:cy="34.346912"
     inkscape:document-units="px"
     inkscape:current-layer="layer1"
     showgrid="false"
     inkscape:window-width="1871"
     inkscape:window-height="1056"
     inkscape:window-x="49"
     inkscape:window-y="24"
     inkscape:window-maximized="1" />
  <metadata
     id="metadata7">
    <rdf:RDF>
      <cc:Work
         rdf:about="">
        <dc:format>image/svg+xml</dc:format>
        <dc:type
           rdf:resource="http://purl.org/dc/dcmitype/StillImage" />
        <dc:title></dc:title>
      </cc:Work>
    </rdf:RDF>
  </metadata>
  <g
     inkscape:label="Layer 1"
     inkscape:groupmode="layer"
     id="layer1"
     transform="translate(0,-988.36218)">
    <path
       style="fill:#fbce0a;fill-opacity:1;stroke:none"
       d="m 55.981213,1031.471 -14.327818,-0.604 0.335189,13.843 -9.763773,-7.0389 -10.184723,7.459 -2.16623,-16.2789 -11.6595723,2.0544 6.6791083,-9.8932 -6.4460353,-9.989 11.3976503,-3.2401 2.757767,-10.65324 12.693941,6.54814 7.091767,-6.31394 3.387134,12.59834 10.438668,1.6262 -7.004682,8.1756 z"
       id="path2988"
       inkscape:connector-curvature="0"
       sodipodi:nodetypes="ccccccccccccccccc" />
    <path
       style="fill:#ff6600;fill-opacity:1;stroke:none"
       d="m 52.796062,1029.752 -12.536841,-0.5286 0.29329,12.1127 -8.543301,-6.1591 -8.911633,6.5267 -1.895452,-14.244 -10.202124,1.7975 5.844219,-8.6565 -5.640281,-8.7404 9.972943,-2.8351 2.413047,-9.32164 11.107199,5.72964 6.205296,-5.52464 2.963742,11.02354 9.133834,1.4229 -6.129096,7.1537 z"
       id="path2988-6"
       inkscape:connector-curvature="0"
       sodipodi:nodetypes="ccccccccccccccccc" />
    <path
       style="fill:#fbce0a;fill-opacity:1;stroke:none"
       d="m 49.341197,1027.5046 -10.298118,-0.4342 0.240916,9.9497 -7.017712,-5.0592 -7.320269,5.3611 -1.556979,-11.7004 -8.380317,1.4766 4.800609,-7.1107 -4.633087,-7.1797 8.19206,-2.3288 1.982145,-7.657 9.123771,4.7065 5.097208,-4.5381 2.434502,9.055 7.502793,1.1688 -5.034616,5.8763 z"
       id="path2988-4"
       inkscape:connector-curvature="0"
       sodipodi:nodetypes="ccccccccccccccccc" />
    <path
       style="fill:#ff6600;fill-opacity:1;stroke:none"
       d="m 45.797468,1025.8906 -8.059397,-0.3587 0.188544,8.2193 -5.492123,-4.1793 -5.728906,4.4287 -1.218505,-9.6655 -6.558509,1.2197 3.756998,-5.874 -3.625894,-5.931 6.411178,-1.9238 1.551243,-6.3254 7.140342,3.8881 3.98912,-3.749 1.905263,7.4803 5.87175,0.9655 -3.940133,4.8542 z"
       id="path2988-6-7"
       inkscape:connector-curvature="0"
       sodipodi:nodetypes="ccccccccccccccccc" />
    <path
       style="fill:#fbce0a;fill-opacity:1;stroke:none"
       d="m 39.699276,1022.1518 -4.477443,-0.1888 0.104746,4.3259 -3.051179,-2.1996 -3.182726,2.3309 -0.676948,-5.0871 -3.643615,0.642 2.087221,-3.0916 -2.014386,-3.1216 3.561765,-1.0126 0.861803,-3.329 3.966856,2.0462 2.216178,-1.973 1.058479,3.9369 3.262084,0.5081 -2.188963,2.555 z"
       id="path2988-4-1"
       inkscape:connector-curvature="0"
       sodipodi:nodetypes="ccccccccccccccccc" />
  </g>
</svg>
